<mxfile host="Electron" modified="2023-05-15T06:41:33.188Z" agent="Mozilla/5.0 (Windows NT 10.0; Win64; x64) AppleWebKit/537.36 (KHTML, like Gecko) draw.io/21.2.1 Chrome/112.0.5615.87 Electron/24.1.2 Safari/537.36" etag="YpoiT8XoLGlEoHgvi3IM" version="21.2.1" type="device">
  <diagram name="Page-1" id="i-YioCjFlm8NZLpOkcIJ">
    <mxGraphModel dx="1806" dy="502" grid="1" gridSize="10" guides="1" tooltips="1" connect="1" arrows="1" fold="1" page="1" pageScale="1" pageWidth="827" pageHeight="1169" math="0" shadow="0">
      <root>
        <mxCell id="0" />
        <mxCell id="1" parent="0" />
        <mxCell id="o52KqbpZfKcBIqm1EHPK-1" value="" style="shape=table;html=1;whiteSpace=wrap;startSize=0;container=1;collapsible=0;childLayout=tableLayout;" parent="1" vertex="1">
          <mxGeometry x="50" y="530" width="320" height="110" as="geometry" />
        </mxCell>
        <mxCell id="o52KqbpZfKcBIqm1EHPK-2" value="" style="shape=partialRectangle;html=1;whiteSpace=wrap;collapsible=0;dropTarget=0;pointerEvents=0;fillColor=none;top=0;left=0;bottom=0;right=0;points=[[0,0.5],[1,0.5]];portConstraint=eastwest;" parent="o52KqbpZfKcBIqm1EHPK-1" vertex="1">
          <mxGeometry width="320" height="28" as="geometry" />
        </mxCell>
        <mxCell id="o52KqbpZfKcBIqm1EHPK-3" value="Projet" style="shape=partialRectangle;html=1;whiteSpace=wrap;connectable=0;overflow=hidden;fillColor=none;top=0;left=0;bottom=0;right=0;" parent="o52KqbpZfKcBIqm1EHPK-2" vertex="1">
          <mxGeometry width="100" height="28" as="geometry">
            <mxRectangle width="100" height="28" as="alternateBounds" />
          </mxGeometry>
        </mxCell>
        <mxCell id="o52KqbpZfKcBIqm1EHPK-4" value="MCD pour projet web+bdd" style="shape=partialRectangle;html=1;whiteSpace=wrap;connectable=0;overflow=hidden;fillColor=none;top=0;left=0;bottom=0;right=0;" parent="o52KqbpZfKcBIqm1EHPK-2" vertex="1">
          <mxGeometry x="100" width="220" height="28" as="geometry">
            <mxRectangle width="220" height="28" as="alternateBounds" />
          </mxGeometry>
        </mxCell>
        <mxCell id="o52KqbpZfKcBIqm1EHPK-5" value="" style="shape=partialRectangle;html=1;whiteSpace=wrap;collapsible=0;dropTarget=0;pointerEvents=0;fillColor=none;top=0;left=0;bottom=0;right=0;points=[[0,0.5],[1,0.5]];portConstraint=eastwest;" parent="o52KqbpZfKcBIqm1EHPK-1" vertex="1">
          <mxGeometry y="28" width="320" height="27" as="geometry" />
        </mxCell>
        <mxCell id="o52KqbpZfKcBIqm1EHPK-6" value="Titre" style="shape=partialRectangle;html=1;whiteSpace=wrap;connectable=0;overflow=hidden;fillColor=none;top=0;left=0;bottom=0;right=0;" parent="o52KqbpZfKcBIqm1EHPK-5" vertex="1">
          <mxGeometry width="100" height="27" as="geometry">
            <mxRectangle width="100" height="27" as="alternateBounds" />
          </mxGeometry>
        </mxCell>
        <mxCell id="o52KqbpZfKcBIqm1EHPK-7" value="Blogue jeux" style="shape=partialRectangle;html=1;whiteSpace=wrap;connectable=0;overflow=hidden;fillColor=none;top=0;left=0;bottom=0;right=0;" parent="o52KqbpZfKcBIqm1EHPK-5" vertex="1">
          <mxGeometry x="100" width="220" height="27" as="geometry">
            <mxRectangle width="220" height="27" as="alternateBounds" />
          </mxGeometry>
        </mxCell>
        <mxCell id="o52KqbpZfKcBIqm1EHPK-8" value="" style="shape=partialRectangle;html=1;whiteSpace=wrap;collapsible=0;dropTarget=0;pointerEvents=0;fillColor=none;top=0;left=0;bottom=0;right=0;points=[[0,0.5],[1,0.5]];portConstraint=eastwest;" parent="o52KqbpZfKcBIqm1EHPK-1" vertex="1">
          <mxGeometry y="55" width="320" height="28" as="geometry" />
        </mxCell>
        <mxCell id="o52KqbpZfKcBIqm1EHPK-9" value="Auteur" style="shape=partialRectangle;html=1;whiteSpace=wrap;connectable=0;overflow=hidden;fillColor=none;top=0;left=0;bottom=0;right=0;" parent="o52KqbpZfKcBIqm1EHPK-8" vertex="1">
          <mxGeometry width="100" height="28" as="geometry">
            <mxRectangle width="100" height="28" as="alternateBounds" />
          </mxGeometry>
        </mxCell>
        <mxCell id="o52KqbpZfKcBIqm1EHPK-10" value="Sacha" style="shape=partialRectangle;html=1;whiteSpace=wrap;connectable=0;overflow=hidden;fillColor=none;top=0;left=0;bottom=0;right=0;" parent="o52KqbpZfKcBIqm1EHPK-8" vertex="1">
          <mxGeometry x="100" width="220" height="28" as="geometry">
            <mxRectangle width="220" height="28" as="alternateBounds" />
          </mxGeometry>
        </mxCell>
        <mxCell id="o52KqbpZfKcBIqm1EHPK-11" value="" style="shape=partialRectangle;html=1;whiteSpace=wrap;collapsible=0;dropTarget=0;pointerEvents=0;fillColor=none;top=0;left=0;bottom=0;right=0;points=[[0,0.5],[1,0.5]];portConstraint=eastwest;" parent="o52KqbpZfKcBIqm1EHPK-1" vertex="1">
          <mxGeometry y="83" width="320" height="27" as="geometry" />
        </mxCell>
        <mxCell id="o52KqbpZfKcBIqm1EHPK-12" value="Version" style="shape=partialRectangle;html=1;whiteSpace=wrap;connectable=0;overflow=hidden;fillColor=none;top=0;left=0;bottom=0;right=0;" parent="o52KqbpZfKcBIqm1EHPK-11" vertex="1">
          <mxGeometry width="100" height="27" as="geometry">
            <mxRectangle width="100" height="27" as="alternateBounds" />
          </mxGeometry>
        </mxCell>
        <mxCell id="o52KqbpZfKcBIqm1EHPK-13" value="1,0" style="shape=partialRectangle;html=1;whiteSpace=wrap;connectable=0;overflow=hidden;fillColor=none;top=0;left=0;bottom=0;right=0;" parent="o52KqbpZfKcBIqm1EHPK-11" vertex="1">
          <mxGeometry x="100" width="220" height="27" as="geometry">
            <mxRectangle width="220" height="27" as="alternateBounds" />
          </mxGeometry>
        </mxCell>
        <mxCell id="o52KqbpZfKcBIqm1EHPK-27" value="&lt;div style=&quot;box-sizing: border-box ; width: 100% ; padding: 2px&quot;&gt;&lt;br&gt;&lt;/div&gt;" style="verticalAlign=top;align=center;overflow=fill;html=1;rounded=0;shadow=0;comic=0;labelBackgroundColor=none;strokeColor=#000000;strokeWidth=1;fillColor=#ffffff;fontFamily=Verdana;fontSize=12;fontColor=#000000;" parent="1" vertex="1">
          <mxGeometry x="90" y="70" width="200" height="100" as="geometry" />
        </mxCell>
        <mxCell id="o52KqbpZfKcBIqm1EHPK-28" value="agents&amp;nbsp;" style="rounded=0;whiteSpace=wrap;html=1;" parent="1" vertex="1">
          <mxGeometry x="90" y="70" width="200" height="20" as="geometry" />
        </mxCell>
        <mxCell id="o52KqbpZfKcBIqm1EHPK-29" value="&lt;u&gt;nom&lt;br&gt;&lt;/u&gt;description&lt;br&gt;compétence&lt;br&gt;histoire&lt;br&gt;citations" style="text;html=1;strokeColor=none;fillColor=none;align=left;verticalAlign=top;whiteSpace=wrap;rounded=0;" parent="1" vertex="1">
          <mxGeometry x="101" y="90" width="90" height="60" as="geometry" />
        </mxCell>
        <mxCell id="o52KqbpZfKcBIqm1EHPK-30" value="&lt;span style=&quot;white-space: pre&quot;&gt; &lt;span style=&quot;white-space: pre&quot;&gt; &lt;/span&gt;&lt;/span&gt;texte&lt;br&gt;&lt;span style=&quot;white-space: pre&quot;&gt; &lt;span style=&quot;white-space: pre;&quot;&gt; &lt;/span&gt;&lt;/span&gt;texte&lt;br&gt;&lt;span style=&quot;white-space: pre&quot;&gt; &lt;span style=&quot;white-space: pre;&quot;&gt; &lt;/span&gt;&lt;/span&gt;texte&amp;nbsp;&lt;span style=&quot;white-space: pre&quot;&gt; &lt;/span&gt;&lt;br&gt;&lt;span style=&quot;white-space: pre&quot;&gt; &lt;/span&gt;&lt;span style=&quot;white-space: pre&quot;&gt; &lt;/span&gt;texte&lt;br&gt;&lt;span style=&quot;white-space: pre;&quot;&gt; &lt;/span&gt;&lt;span style=&quot;white-space: pre;&quot;&gt; &lt;/span&gt;texte&amp;nbsp;" style="text;html=1;strokeColor=none;fillColor=none;align=left;verticalAlign=top;whiteSpace=wrap;rounded=0;" parent="1" vertex="1">
          <mxGeometry x="190" y="90" width="100" height="50" as="geometry" />
        </mxCell>
        <mxCell id="o52KqbpZfKcBIqm1EHPK-31" value="&lt;div style=&quot;box-sizing: border-box ; width: 100% ; padding: 2px&quot;&gt;&lt;br&gt;&lt;/div&gt;" style="verticalAlign=top;align=center;overflow=fill;html=1;rounded=0;shadow=0;comic=0;labelBackgroundColor=none;strokeColor=#000000;strokeWidth=1;fillColor=#ffffff;fontFamily=Verdana;fontSize=12;fontColor=#000000;" parent="1" vertex="1">
          <mxGeometry x="594.5" y="70" width="200" height="60" as="geometry" />
        </mxCell>
        <mxCell id="o52KqbpZfKcBIqm1EHPK-32" value="cartes" style="rounded=0;whiteSpace=wrap;html=1;" parent="1" vertex="1">
          <mxGeometry x="594.5" y="70" width="200" height="20" as="geometry" />
        </mxCell>
        <mxCell id="o52KqbpZfKcBIqm1EHPK-33" value="&lt;u&gt;nom&lt;/u&gt;&lt;br&gt;description" style="text;html=1;strokeColor=none;fillColor=none;align=left;verticalAlign=top;whiteSpace=wrap;rounded=0;" parent="1" vertex="1">
          <mxGeometry x="605.5" y="90" width="90" height="60" as="geometry" />
        </mxCell>
        <mxCell id="o52KqbpZfKcBIqm1EHPK-34" value="&lt;span style=&quot;white-space: pre&quot;&gt; &lt;span style=&quot;white-space: pre&quot;&gt; &lt;/span&gt;&lt;/span&gt;texte&lt;br&gt;&lt;span style=&quot;white-space: pre&quot;&gt; &lt;/span&gt;numérique&lt;br&gt;&lt;span style=&quot;white-space: pre&quot;&gt; &lt;/span&gt;&lt;span style=&quot;white-space: pre&quot;&gt; &lt;/span&gt;&lt;br&gt;&lt;span style=&quot;white-space: pre&quot;&gt; &lt;/span&gt;&lt;span style=&quot;white-space: pre&quot;&gt; &lt;/span&gt;" style="text;html=1;strokeColor=none;fillColor=none;align=left;verticalAlign=top;whiteSpace=wrap;rounded=0;" parent="1" vertex="1">
          <mxGeometry x="694.5" y="90" width="100" height="50" as="geometry" />
        </mxCell>
        <mxCell id="o52KqbpZfKcBIqm1EHPK-35" value="&lt;div style=&quot;box-sizing: border-box ; width: 100% ; padding: 2px&quot;&gt;&lt;br&gt;&lt;/div&gt;" style="verticalAlign=top;align=center;overflow=fill;html=1;rounded=0;shadow=0;comic=0;labelBackgroundColor=none;strokeColor=#000000;strokeWidth=1;fillColor=#ffffff;fontFamily=Verdana;fontSize=12;fontColor=#000000;" parent="1" vertex="1">
          <mxGeometry x="-130" y="240" width="200" height="100" as="geometry" />
        </mxCell>
        <mxCell id="o52KqbpZfKcBIqm1EHPK-36" value="armes" style="rounded=0;whiteSpace=wrap;html=1;" parent="1" vertex="1">
          <mxGeometry x="-130" y="240" width="200" height="20" as="geometry" />
        </mxCell>
        <mxCell id="o52KqbpZfKcBIqm1EHPK-37" value="&lt;u&gt;nom&lt;/u&gt;&lt;br&gt;type&lt;br&gt;origine&amp;nbsp;&lt;br&gt;chargeur&lt;br&gt;coût" style="text;html=1;strokeColor=none;fillColor=none;align=left;verticalAlign=top;whiteSpace=wrap;rounded=0;" parent="1" vertex="1">
          <mxGeometry x="-124.5" y="260" width="90" height="60" as="geometry" />
        </mxCell>
        <mxCell id="o52KqbpZfKcBIqm1EHPK-38" value="&lt;span style=&quot;white-space: pre&quot;&gt; &lt;span style=&quot;white-space: pre&quot;&gt; &lt;/span&gt;&lt;/span&gt;texte&lt;br&gt;&lt;span style=&quot;white-space: pre&quot;&gt; &lt;span style=&quot;white-space: pre;&quot;&gt; &lt;/span&gt;&lt;/span&gt;texte&lt;br&gt;&lt;span style=&quot;white-space: pre&quot;&gt; &lt;span style=&quot;white-space: pre;&quot;&gt; &lt;/span&gt;&lt;/span&gt;texte&lt;br&gt;&lt;span style=&quot;white-space: pre&quot;&gt; &lt;/span&gt;&lt;span style=&quot;white-space: pre&quot;&gt; &lt;/span&gt;texte&lt;br&gt;&lt;span style=&quot;white-space: pre;&quot;&gt; &lt;/span&gt;numérique" style="text;html=1;strokeColor=none;fillColor=none;align=left;verticalAlign=top;whiteSpace=wrap;rounded=0;" parent="1" vertex="1">
          <mxGeometry x="-35.5" y="260" width="100" height="50" as="geometry" />
        </mxCell>
        <mxCell id="o52KqbpZfKcBIqm1EHPK-39" value="&lt;div style=&quot;box-sizing: border-box ; width: 100% ; padding: 2px&quot;&gt;&lt;br&gt;&lt;/div&gt;" style="verticalAlign=top;align=center;overflow=fill;html=1;rounded=0;shadow=0;comic=0;labelBackgroundColor=none;strokeColor=#000000;strokeWidth=1;fillColor=#ffffff;fontFamily=Verdana;fontSize=12;fontColor=#000000;" parent="1" vertex="1">
          <mxGeometry x="600" y="335" width="200" height="70" as="geometry" />
        </mxCell>
        <mxCell id="o52KqbpZfKcBIqm1EHPK-41" value="&lt;u&gt;email&lt;/u&gt;&lt;br&gt;mot de passe" style="text;html=1;strokeColor=none;fillColor=none;align=left;verticalAlign=top;whiteSpace=wrap;rounded=0;" parent="1" vertex="1">
          <mxGeometry x="605.5" y="355" width="90" height="60" as="geometry" />
        </mxCell>
        <mxCell id="o52KqbpZfKcBIqm1EHPK-42" value="&lt;span style=&quot;white-space: pre&quot;&gt; &lt;span style=&quot;white-space: pre&quot;&gt; &lt;/span&gt;&lt;/span&gt;texte&lt;br&gt;&lt;span style=&quot;white-space: pre&quot;&gt; &lt;span style=&quot;white-space: pre;&quot;&gt; &lt;/span&gt;t&lt;/span&gt;exte&lt;br&gt;&lt;span style=&quot;white-space: pre&quot;&gt; &lt;/span&gt;&lt;span style=&quot;white-space: pre&quot;&gt; &lt;/span&gt;&lt;br&gt;&lt;span style=&quot;white-space: pre&quot;&gt; &lt;/span&gt;&lt;span style=&quot;white-space: pre&quot;&gt; &lt;/span&gt;" style="text;html=1;strokeColor=none;fillColor=none;align=left;verticalAlign=top;whiteSpace=wrap;rounded=0;" parent="1" vertex="1">
          <mxGeometry x="694.5" y="355" width="100" height="50" as="geometry" />
        </mxCell>
        <mxCell id="o52KqbpZfKcBIqm1EHPK-40" value="membre" style="rounded=0;whiteSpace=wrap;html=1;" parent="1" vertex="1">
          <mxGeometry x="600" y="335" width="200" height="20" as="geometry" />
        </mxCell>
        <mxCell id="o52KqbpZfKcBIqm1EHPK-43" value="&lt;div style=&quot;box-sizing: border-box ; width: 100% ; padding: 2px&quot;&gt;&lt;br&gt;&lt;/div&gt;" style="verticalAlign=top;align=center;overflow=fill;html=1;rounded=0;shadow=0;comic=0;labelBackgroundColor=none;strokeColor=#000000;strokeWidth=1;fillColor=#ffffff;fontFamily=Verdana;fontSize=12;fontColor=#000000;" parent="1" vertex="1">
          <mxGeometry x="340" y="410" width="200" height="90" as="geometry" />
        </mxCell>
        <mxCell id="o52KqbpZfKcBIqm1EHPK-44" value="dégâts" style="rounded=0;whiteSpace=wrap;html=1;" parent="1" vertex="1">
          <mxGeometry x="340" y="410" width="200" height="20" as="geometry" />
        </mxCell>
        <mxCell id="o52KqbpZfKcBIqm1EHPK-45" value="&lt;u&gt;arme&lt;br&gt;&lt;/u&gt;tête&lt;br&gt;corps&lt;br&gt;jambe&lt;br&gt;" style="text;html=1;strokeColor=none;fillColor=none;align=left;verticalAlign=top;whiteSpace=wrap;rounded=0;" parent="1" vertex="1">
          <mxGeometry x="351" y="430" width="90" height="60" as="geometry" />
        </mxCell>
        <mxCell id="o52KqbpZfKcBIqm1EHPK-46" value="&lt;span style=&quot;white-space: pre&quot;&gt; &lt;span style=&quot;white-space: pre&quot;&gt; &lt;/span&gt;&lt;/span&gt;texte&lt;br&gt;&lt;span style=&quot;white-space: pre&quot;&gt; &lt;/span&gt;numérique&lt;br&gt;&lt;span style=&quot;white-space: pre&quot;&gt; &lt;/span&gt;numérique&amp;nbsp;&lt;br&gt;&lt;span style=&quot;white-space: pre&quot;&gt; &lt;/span&gt;numérique&amp;nbsp;" style="text;html=1;strokeColor=none;fillColor=none;align=left;verticalAlign=top;whiteSpace=wrap;rounded=0;" parent="1" vertex="1">
          <mxGeometry x="440" y="430" width="100" height="50" as="geometry" />
        </mxCell>
        <mxCell id="o52KqbpZfKcBIqm1EHPK-48" value="&lt;div style=&quot;box-sizing: border-box ; width: 100% ; padding: 2px&quot;&gt;faire&lt;/div&gt;" style="verticalAlign=top;align=center;overflow=fill;html=1;rounded=1;shadow=0;comic=0;labelBackgroundColor=none;strokeColor=#000000;strokeWidth=1;fillColor=#ffffff;fontFamily=Verdana;fontSize=12;fontColor=#000000;" parent="1" vertex="1">
          <mxGeometry x="63.35" y="415" width="180" height="80" as="geometry" />
        </mxCell>
        <mxCell id="o52KqbpZfKcBIqm1EHPK-50" value="" style="endArrow=none;html=1;entryX=1;entryY=0.25;entryDx=0;entryDy=0;exitX=0;exitY=0.25;exitDx=0;exitDy=0;" parent="1" source="o52KqbpZfKcBIqm1EHPK-48" target="o52KqbpZfKcBIqm1EHPK-48" edge="1">
          <mxGeometry width="50" height="50" relative="1" as="geometry">
            <mxPoint x="-48.15" y="575" as="sourcePoint" />
            <mxPoint x="1.85" y="525" as="targetPoint" />
          </mxGeometry>
        </mxCell>
        <mxCell id="o52KqbpZfKcBIqm1EHPK-57" value="1,n" style="endArrow=none;html=1;rounded=0;exitX=0.5;exitY=0;exitDx=0;exitDy=0;entryX=0.345;entryY=1.002;entryDx=0;entryDy=0;entryPerimeter=0;" parent="1" source="o52KqbpZfKcBIqm1EHPK-48" target="o52KqbpZfKcBIqm1EHPK-35" edge="1">
          <mxGeometry width="50" height="50" relative="1" as="geometry">
            <mxPoint x="153.17999999999992" y="381.82" as="sourcePoint" />
            <mxPoint x="-40" y="380" as="targetPoint" />
            <Array as="points">
              <mxPoint x="153" y="370" />
              <mxPoint x="-61" y="370" />
            </Array>
          </mxGeometry>
        </mxCell>
        <mxCell id="o52KqbpZfKcBIqm1EHPK-58" value="0,n" style="endArrow=none;html=1;rounded=0;entryX=0;entryY=0.5;entryDx=0;entryDy=0;exitX=1;exitY=0.5;exitDx=0;exitDy=0;" parent="1" source="o52KqbpZfKcBIqm1EHPK-48" target="o52KqbpZfKcBIqm1EHPK-43" edge="1">
          <mxGeometry width="50" height="50" relative="1" as="geometry">
            <mxPoint x="250" y="460" as="sourcePoint" />
            <mxPoint x="380" y="440" as="targetPoint" />
          </mxGeometry>
        </mxCell>
        <mxCell id="o52KqbpZfKcBIqm1EHPK-59" value="&lt;div style=&quot;box-sizing: border-box ; width: 100% ; padding: 2px&quot;&gt;voir&lt;/div&gt;" style="verticalAlign=top;align=center;overflow=fill;html=1;rounded=1;shadow=0;comic=0;labelBackgroundColor=none;strokeColor=#000000;strokeWidth=1;fillColor=#ffffff;fontFamily=Verdana;fontSize=12;fontColor=#000000;" parent="1" vertex="1">
          <mxGeometry x="600" y="190" width="180" height="80" as="geometry" />
        </mxCell>
        <mxCell id="o52KqbpZfKcBIqm1EHPK-60" value="" style="endArrow=none;html=1;entryX=1;entryY=0.25;entryDx=0;entryDy=0;exitX=0;exitY=0.25;exitDx=0;exitDy=0;" parent="1" source="o52KqbpZfKcBIqm1EHPK-59" target="o52KqbpZfKcBIqm1EHPK-59" edge="1">
          <mxGeometry width="50" height="50" relative="1" as="geometry">
            <mxPoint x="81.85" y="605" as="sourcePoint" />
            <mxPoint x="131.85" y="555" as="targetPoint" />
          </mxGeometry>
        </mxCell>
        <mxCell id="o52KqbpZfKcBIqm1EHPK-61" value="0,n" style="endArrow=none;html=1;rounded=0;exitX=0.465;exitY=0.016;exitDx=0;exitDy=0;exitPerimeter=0;" parent="1" source="o52KqbpZfKcBIqm1EHPK-40" edge="1">
          <mxGeometry width="50" height="50" relative="1" as="geometry">
            <mxPoint x="644.5" y="318.18" as="sourcePoint" />
            <mxPoint x="694.5" y="268.18" as="targetPoint" />
          </mxGeometry>
        </mxCell>
        <mxCell id="o52KqbpZfKcBIqm1EHPK-64" value="0,n" style="endArrow=none;html=1;rounded=0;" parent="1" source="o52KqbpZfKcBIqm1EHPK-59" edge="1">
          <mxGeometry width="50" height="50" relative="1" as="geometry">
            <mxPoint x="650" y="180" as="sourcePoint" />
            <mxPoint x="690" y="130" as="targetPoint" />
          </mxGeometry>
        </mxCell>
        <mxCell id="o52KqbpZfKcBIqm1EHPK-67" value="&lt;div style=&quot;box-sizing: border-box ; width: 100% ; padding: 2px&quot;&gt;voir&lt;/div&gt;" style="verticalAlign=top;align=center;overflow=fill;html=1;rounded=1;shadow=0;comic=0;labelBackgroundColor=none;strokeColor=#000000;strokeWidth=1;fillColor=#ffffff;fontFamily=Verdana;fontSize=12;fontColor=#000000;" parent="1" vertex="1">
          <mxGeometry x="390" y="160" width="180" height="80" as="geometry" />
        </mxCell>
        <mxCell id="o52KqbpZfKcBIqm1EHPK-68" value="" style="endArrow=none;html=1;entryX=1;entryY=0.25;entryDx=0;entryDy=0;exitX=0;exitY=0.25;exitDx=0;exitDy=0;" parent="1" source="o52KqbpZfKcBIqm1EHPK-67" target="o52KqbpZfKcBIqm1EHPK-67" edge="1">
          <mxGeometry width="50" height="50" relative="1" as="geometry">
            <mxPoint x="-178.15" y="615" as="sourcePoint" />
            <mxPoint x="-128.15" y="565" as="targetPoint" />
          </mxGeometry>
        </mxCell>
        <mxCell id="o52KqbpZfKcBIqm1EHPK-69" value="0,n" style="endArrow=none;html=1;rounded=0;exitX=0.5;exitY=1;exitDx=0;exitDy=0;" parent="1" source="o52KqbpZfKcBIqm1EHPK-67" edge="1">
          <mxGeometry width="50" height="50" relative="1" as="geometry">
            <mxPoint x="550" y="420" as="sourcePoint" />
            <mxPoint x="600" y="370" as="targetPoint" />
            <Array as="points">
              <mxPoint x="480" y="370" />
            </Array>
          </mxGeometry>
        </mxCell>
        <mxCell id="o52KqbpZfKcBIqm1EHPK-70" value="0,n" style="endArrow=none;html=1;rounded=0;entryX=1;entryY=0.75;entryDx=0;entryDy=0;exitX=0.5;exitY=0;exitDx=0;exitDy=0;" parent="1" source="o52KqbpZfKcBIqm1EHPK-67" target="o52KqbpZfKcBIqm1EHPK-30" edge="1">
          <mxGeometry width="50" height="50" relative="1" as="geometry">
            <mxPoint x="430" y="200" as="sourcePoint" />
            <mxPoint x="480" y="150" as="targetPoint" />
            <Array as="points">
              <mxPoint x="480" y="128" />
            </Array>
          </mxGeometry>
        </mxCell>
        <mxCell id="o52KqbpZfKcBIqm1EHPK-75" value="&lt;div style=&quot;box-sizing: border-box ; width: 100% ; padding: 2px&quot;&gt;voir&lt;/div&gt;" style="verticalAlign=top;align=center;overflow=fill;html=1;rounded=1;shadow=0;comic=0;labelBackgroundColor=none;strokeColor=#000000;strokeWidth=1;fillColor=#ffffff;fontFamily=Verdana;fontSize=12;fontColor=#000000;" parent="1" vertex="1">
          <mxGeometry x="180" y="250" width="180" height="80" as="geometry" />
        </mxCell>
        <mxCell id="o52KqbpZfKcBIqm1EHPK-76" value="" style="endArrow=none;html=1;entryX=1;entryY=0.25;entryDx=0;entryDy=0;exitX=0;exitY=0.25;exitDx=0;exitDy=0;" parent="1" source="o52KqbpZfKcBIqm1EHPK-75" target="o52KqbpZfKcBIqm1EHPK-75" edge="1">
          <mxGeometry width="50" height="50" relative="1" as="geometry">
            <mxPoint x="-338.15" y="665" as="sourcePoint" />
            <mxPoint x="-288.15" y="615" as="targetPoint" />
          </mxGeometry>
        </mxCell>
        <mxCell id="o52KqbpZfKcBIqm1EHPK-77" value="0,n" style="endArrow=none;html=1;rounded=0;entryX=0.5;entryY=0;entryDx=0;entryDy=0;" parent="1" target="o52KqbpZfKcBIqm1EHPK-75" edge="1">
          <mxGeometry width="50" height="50" relative="1" as="geometry">
            <mxPoint x="-35.5" y="240" as="sourcePoint" />
            <mxPoint x="14.5" y="190" as="targetPoint" />
            <Array as="points">
              <mxPoint x="-35" y="200" />
              <mxPoint x="270" y="200" />
            </Array>
          </mxGeometry>
        </mxCell>
        <mxCell id="o52KqbpZfKcBIqm1EHPK-78" value="0,n" style="endArrow=none;html=1;rounded=0;exitX=0.5;exitY=1;exitDx=0;exitDy=0;" parent="1" source="o52KqbpZfKcBIqm1EHPK-75" target="o52KqbpZfKcBIqm1EHPK-41" edge="1">
          <mxGeometry width="50" height="50" relative="1" as="geometry">
            <mxPoint x="330" y="400" as="sourcePoint" />
            <mxPoint x="380" y="350" as="targetPoint" />
            <Array as="points">
              <mxPoint x="270" y="385" />
            </Array>
          </mxGeometry>
        </mxCell>
      </root>
    </mxGraphModel>
  </diagram>
</mxfile>
